<?xml version="1.0" encoding="UTF-8"?>
<svg xmlns="http://www.w3.org/2000/svg" xmlns:xlink="http://www.w3.org/1999/xlink" width="500pt" height="500pt" viewBox="0 0 500 500" version="1.1">
<g id="surface1">
<path style=" stroke:none;fill-rule:nonzero;fill:#FFFFFF;fill-opacity:1;" d="M 49.601563 79.363281 C 42.433594 79.25 35.808594 83.007813 32.203125 89.207031 C 28.5625 95.371094 28.5625 103.042969 32.203125 109.203125 C 35.808594 115.40625 42.433594 119.164063 49.601563 119.046875 L 446.429688 119.046875 C 453.597656 119.164063 460.222656 115.40625 463.828125 109.203125 C 467.472656 103.042969 467.472656 95.371094 463.828125 89.207031 C 460.222656 83.007813 453.597656 79.25 446.429688 79.363281 Z M 49.601563 228.175781 C 42.433594 228.058594 35.808594 231.816406 32.203125 238.019531 C 28.5625 244.179688 28.5625 251.851563 32.203125 258.015625 C 35.808594 264.214844 42.433594 267.972656 49.601563 267.855469 L 446.429688 267.855469 C 453.597656 267.972656 460.222656 264.214844 463.828125 258.015625 C 467.472656 251.851563 467.472656 244.179688 463.828125 238.019531 C 460.222656 231.816406 453.597656 228.058594 446.429688 228.175781 Z M 49.601563 376.984375 C 42.433594 376.867188 35.808594 380.625 32.203125 386.828125 C 28.5625 392.988281 28.5625 400.660156 32.203125 406.824219 C 35.808594 413.023438 42.433594 416.78125 49.601563 416.667969 L 446.429688 416.667969 C 453.597656 416.78125 460.222656 413.023438 463.828125 406.824219 C 467.472656 400.660156 467.472656 392.988281 463.828125 386.828125 C 460.222656 380.625 453.597656 376.867188 446.429688 376.984375 Z "/>
</g>
</svg>
